<?xml version="1.0" encoding="UTF-8" standalone="no"?>

<svg
   xmlns:dc="http://purl.org/dc/elements/1.1/"
   xmlns:cc="http://creativecommons.org/ns#"
   xmlns:rdf="http://www.w3.org/1999/02/22-rdf-syntax-ns#"
   xmlns:svg="http://www.w3.org/2000/svg"
   xmlns="http://www.w3.org/2000/svg"
   width="91.303017"
   height="91.303017"
   viewBox="0 0 91.303017 91.303016"
   version="1.1"
   id="svg8">
  <g
     inkscape:label="Layer 1"
     inkscape:groupmode="layer"
     id="layer1"
     transform="translate(-0.01670435,41.975666)">
    <path
       d="M 0.01670435,30.275878 H 12.915141 c 0,0 2.031622,0.14174 4.063243,-2.36235 2.031622,-2.5041 20.103609,-46.148524 20.103609,-46.148524 0,0 -1.247352,-0.80168 -2.30685,-0.80168 -1.0595,0 -13.072057,-0.0133 -13.072057,-0.0133 z"
       id="path4555"
       inkscape:connector-curvature="0"
       sodipodi:nodetypes="ccccscc"
       style="display:inline;fill:#1089ff;stroke:none;stroke-width:0.26458332px;stroke-linecap:butt;stroke-linejoin:miter;stroke-opacity:1" />
    <path
       d="m 53.835173,19.981048 h -12.56167 c 0,0 -1.50339,-0.169844 -2.60588,-1.087029 l 15.63527,-37.944025 13.563927,0.03758 c 1.069076,0.003 2.388729,1.116815 2.388729,1.116815 0,0 -0.283966,0.204387 -16.420376,37.876654 z"
       id="path4893"
       inkscape:connector-curvature="0"
       sodipodi:nodetypes="ccccscc"
       style="display:inline;fill:#7f2aff;stroke:none;stroke-width:0.26679516px;stroke-linecap:butt;stroke-linejoin:miter;stroke-opacity:1" />
    <path
       d="m 21.703086,-19.049976 13.063805,-0.01184 c 0,0 2.480472,0.01181 3.519902,2.279663 1.03943,2.267862 15.54427,36.852673 15.54427,36.852673 h -12.37872 c 0,0 -3.49628,-0.7087 -4.58296,-2.78757 C 35.7827,15.204078 21.703086,-19.049976 21.703086,-19.049976 Z"
       id="path4557"
       inkscape:connector-curvature="0"
       style="display:inline;fill:#ffac41;fill-opacity:0.8627451;stroke:none;stroke-width:0.26458332px;stroke-linecap:butt;stroke-linejoin:miter;stroke-opacity:1"
       sodipodi:nodetypes="ccccccc" />
    <path
       d="m 54.302893,-19.050006 19.2434,45.760204 c 0,0 2.00453,3.540976 4.07587,3.540976 2.07133,0 13.69756,0.136186 13.69756,0.136186 l -19.57749,-46.509262 c 0,0 -1.72055,-2.894065 -3.99234,-2.894065 -2.27179,0 -13.447,-0.03404 -13.447,-0.03404 z"
       id="path4907"
       inkscape:connector-curvature="0"
       sodipodi:nodetypes="ccsccscc"
       style="fill:#ff1e56;fill-opacity:0.8627451;stroke:none;stroke-width:0.267102px;stroke-linecap:butt;stroke-linejoin:miter;stroke-opacity:1" />
  </g>
</svg>
